<?xml version="1.0" standalone="no"?>
<!DOCTYPE svg PUBLIC "-//W3C//DTD SVG 20010904//EN"
 "http://www.w3.org/TR/2001/REC-SVG-20010904/DTD/svg10.dtd">
<svg version="1.0" xmlns="http://www.w3.org/2000/svg"
 width="1398.000000pt" height="1398.000000pt" viewBox="0 0 1398.000000 1398.000000"
 preserveAspectRatio="xMidYMid meet">

<g transform="translate(0.000000,1398.000000) scale(0.100000,-0.100000)"
fill="#000000" stroke="none">
<path d="M3871 13959 c-373 -22 -812 -116 -1166 -249 -1442 -540 -2467 -1832
-2660 -3350 -34 -274 -36 -450 -32 -3510 3 -2725 5 -3038 20 -3156 74 -598
241 -1116 515 -1599 81 -144 268 -417 378 -555 212 -265 552 -583 844 -790
476 -338 1090 -593 1655 -688 359 -61 102 -57 3565 -57 2995 0 3163 1 3310 18
672 80 1267 294 1815 654 948 623 1593 1597 1799 2713 65 354 61 106 61 3595
0 3469 4 3211 -57 3570 -95 565 -350 1179 -688 1655 -207 292 -525 632 -790
844 -140 112 -416 300 -555 379 -556 312 -1157 488 -1795 527 -199 12 -6019
11 -6219 -1z m6428 -652 c311 -48 557 -110 801 -204 968 -370 1719 -1147 2055
-2123 111 -325 166 -612 185 -978 13 -234 13 -5810 0 -6042 -26 -495 -133
-916 -340 -1347 -180 -373 -379 -652 -680 -953 -301 -301 -578 -499 -952 -680
-429 -207 -852 -313 -1348 -340 -232 -13 -5808 -13 -6042 0 -534 28 -1005 154
-1454 390 -937 490 -1609 1385 -1808 2409 -66 336 -61 47 -61 3531 0 3342 -2
3207 46 3480 131 753 523 1464 1086 1973 475 429 1049 719 1663 841 110 22
303 49 425 59 22 2 1451 3 3175 3 2933 -2 3142 -3 3249 -19z"/>
<path d="M10675 11414 c-219 -46 -406 -217 -478 -437 -15 -48 -20 -90 -21
-182 0 -105 3 -130 26 -195 40 -114 74 -168 162 -255 136 -135 281 -191 471
-182 170 8 301 65 419 183 249 251 248 646 -4 895 -156 155 -364 217 -575 173z"/>
<path d="M6815 10470 c-999 -51 -1930 -533 -2558 -1325 -404 -510 -659 -1131
-732 -1785 -19 -174 -22 -533 -5 -705 79 -813 427 -1551 1005 -2131 578 -580
1287 -920 2120 -1016 164 -19 569 -16 745 6 529 64 1010 232 1455 509 370 230
739 579 1002 947 336 471 547 1024 619 1620 22 176 25 581 6 745 -51 439 -164
829 -348 1197 -627 1253 -1917 2008 -3309 1938z m595 -659 c620 -94 1166 -368
1605 -806 541 -540 835 -1251 835 -2020 0 -468 -100 -890 -306 -1295 -440
-865 -1262 -1433 -2234 -1546 -180 -20 -556 -15 -720 11 -637 100 -1175 370
-1615 810 -517 516 -807 1189 -832 1925 -21 638 163 1246 535 1765 95 132 184
235 329 375 156 153 247 227 423 343 383 252 828 408 1305 457 147 15 520 4
675 -19z"/>
</g>
</svg>
